<svg xmlns="http://www.w3.org/2000/svg" viewBox="0 0 151.83 36.07"><defs><style>.cls-1{fill:#ec2027;}.cls-2{fill:#4a494a;}</style></defs><title>vateep logo full color</title><g id="Layer_2" data-name="Layer 2"><g id="Layer_1-2" data-name="Layer 1"><path class="cls-1" d="M31.85.76A7.05,7.05,0,0,0,28.64,0a7.23,7.23,0,0,0-6.11,3.4c-.07.1-.15.23-4.61,9.25-4.47-9-4.55-9.14-4.61-9.25A7.25,7.25,0,0,0,7.19,0,7.05,7.05,0,0,0,4,.76,7.2,7.2,0,0,0,.56,10c.37.88,7.7,15.64,10.83,21.94l.08.17h0A7.21,7.21,0,0,0,24.41,32l.05-.1C27.59,25.6,34.9,10.86,35.27,10A7.2,7.2,0,0,0,31.85.76Zm2,8.63c-.4.95-10.07,20.4-10.82,21.93a5.69,5.69,0,0,1-10.22.09l-4-8c1.82,1.26,5.37-.21,7-3.42.62-1.19,2-3.94,2-3.94,2.82-5.71,5.8-11.71,5.9-11.87a5.67,5.67,0,0,1,10,5.19Z"/><path class="cls-2" d="M49.13,11.43l3.63,10.19L56.68,11a6.07,6.07,0,0,1,.9-1.82,1.64,1.64,0,0,1,1.35-.53,2,2,0,0,1,1.45.57,1.79,1.79,0,0,1,.6,1.33,2.34,2.34,0,0,1-.11.69,6.43,6.43,0,0,1-.24.74l-.32.79L56,23.44c-.12.31-.28.7-.47,1.17a6,6,0,0,1-.64,1.21,2.5,2.5,0,0,1-.87.78,2.67,2.67,0,0,1-1.26.28,2.45,2.45,0,0,1-1.52-.44,2.93,2.93,0,0,1-.83-1c-.19-.35-.49-1-.92-2L45.22,12.88l-.3-.79a5.92,5.92,0,0,1-.27-.81,2.87,2.87,0,0,1-.1-.71,1.69,1.69,0,0,1,.28-.91,2.19,2.19,0,0,1,.77-.74,2.09,2.09,0,0,1,1.07-.28,1.69,1.69,0,0,1,1.53.64A9.91,9.91,0,0,1,49.13,11.43Z"/><path class="cls-2" d="M75.1,24.35A14.57,14.57,0,0,1,72,26.25a8.82,8.82,0,0,1-3.41.63,6.51,6.51,0,0,1-3-.68,5,5,0,0,1-2-1.85,4.72,4.72,0,0,1-.71-2.53A4.51,4.51,0,0,1,64,18.68a5.72,5.72,0,0,1,3.2-1.74l2.12-.45c1.13-.23,2.1-.44,2.9-.63s1.68-.43,2.62-.7a4.64,4.64,0,0,0-.71-2.6c-.42-.56-1.3-.83-2.62-.83a5.49,5.49,0,0,0-2.58.47,4.26,4.26,0,0,0-1.47,1.43c-.42.64-.71,1.06-.88,1.26a1.43,1.43,0,0,1-1.09.3,1.9,1.9,0,0,1-1.3-.48,1.58,1.58,0,0,1-.56-1.24,3.77,3.77,0,0,1,.84-2.3,5.93,5.93,0,0,1,2.62-1.84,11.57,11.57,0,0,1,4.42-.73,12.63,12.63,0,0,1,4.65.7,4.34,4.34,0,0,1,2.39,2.21,9.78,9.78,0,0,1,.7,4c0,1.05,0,1.95,0,2.68s0,1.55,0,2.45a9.06,9.06,0,0,0,.42,2.64A8.26,8.26,0,0,1,80,25.05a1.64,1.64,0,0,1-.65,1.26,2.16,2.16,0,0,1-1.47.57,2,2,0,0,1-1.36-.65A9.4,9.4,0,0,1,75.1,24.35Zm-.3-6.49a22.84,22.84,0,0,1-2.86.76c-1.26.27-2.13.47-2.61.59A3.59,3.59,0,0,0,68,20a1.9,1.9,0,0,0-.66,1.54,2.29,2.29,0,0,0,.77,1.73,2.86,2.86,0,0,0,2,.72,5.24,5.24,0,0,0,2.45-.59,3.91,3.91,0,0,0,1.65-1.5,6.82,6.82,0,0,0,.61-3.35Z"/><path class="cls-2" d="M83.17,9h.49V6.33c0-.72,0-1.29.06-1.7A2.49,2.49,0,0,1,84,3.57a2,2,0,0,1,.76-.74,2,2,0,0,1,1.1-.29,2.19,2.19,0,0,1,1.54.64,1.84,1.84,0,0,1,.58,1A8.77,8.77,0,0,1,88.15,6V9h1.64a2.13,2.13,0,0,1,1.46.45,1.51,1.51,0,0,1,.5,1.16A1.3,1.3,0,0,1,91,11.91a4.63,4.63,0,0,1-2,.36h-.84v8.25a13.46,13.46,0,0,0,.07,1.62,1.65,1.65,0,0,0,.4.92,1.36,1.36,0,0,0,1,.35,5.91,5.91,0,0,0,1.07-.14,5.84,5.84,0,0,1,1-.14,1.37,1.37,0,0,1,1,.44,1.46,1.46,0,0,1,.43,1.07A1.79,1.79,0,0,1,92,26.3a7.88,7.88,0,0,1-3.4.58,5.89,5.89,0,0,1-3.19-.71,3.26,3.26,0,0,1-1.42-2,13.08,13.08,0,0,1-.34-3.34V12.27h-.59a2.17,2.17,0,0,1-1.48-.46,1.52,1.52,0,0,1-.51-1.17,1.45,1.45,0,0,1,.54-1.16A2.33,2.33,0,0,1,83.17,9Z"/><path class="cls-2" d="M107.36,18.86H98.58a5.9,5.9,0,0,0,.62,2.69A4.11,4.11,0,0,0,103,23.9a5.18,5.18,0,0,0,1.47-.19,4.66,4.66,0,0,0,1.29-.59,9.31,9.31,0,0,0,1.15-.86c.35-.31.81-.72,1.36-1.25a1.46,1.46,0,0,1,1-.29,1.65,1.65,0,0,1,1.12.37,1.38,1.38,0,0,1,.43,1.07,2.88,2.88,0,0,1-.48,1.42,5.48,5.48,0,0,1-1.44,1.56,8,8,0,0,1-2.42,1.24,10.34,10.34,0,0,1-3.34.5,8.92,8.92,0,0,1-6.72-2.47A9.17,9.17,0,0,1,94,17.72,11.33,11.33,0,0,1,94.59,14a8,8,0,0,1,1.73-2.91,7.5,7.5,0,0,1,2.79-1.87,10.08,10.08,0,0,1,3.68-.65,8.72,8.72,0,0,1,4.51,1.11,7.26,7.26,0,0,1,2.82,2.87,7.48,7.48,0,0,1,.94,3.58,2.26,2.26,0,0,1-1,2.2A6.13,6.13,0,0,1,107.36,18.86Zm-8.78-2.55h8.14a5.44,5.44,0,0,0-1.24-3.44,3.72,3.72,0,0,0-2.84-1.14,3.6,3.6,0,0,0-2.75,1.15A5.83,5.83,0,0,0,98.58,16.31Z"/><path class="cls-2" d="M127.36,18.86h-8.78a6,6,0,0,0,.62,2.69A4.13,4.13,0,0,0,123,23.9a5.18,5.18,0,0,0,1.47-.19,4.66,4.66,0,0,0,1.29-.59,9.31,9.31,0,0,0,1.15-.86c.35-.31.81-.72,1.37-1.25a1.43,1.43,0,0,1,1-.29,1.65,1.65,0,0,1,1.12.37,1.38,1.38,0,0,1,.43,1.07,2.88,2.88,0,0,1-.48,1.42,5.48,5.48,0,0,1-1.44,1.56,7.9,7.9,0,0,1-2.41,1.24,10.4,10.4,0,0,1-3.35.5,8.92,8.92,0,0,1-6.72-2.47,9.17,9.17,0,0,1-2.4-6.69,11.33,11.33,0,0,1,.59-3.69,8.16,8.16,0,0,1,1.73-2.91,7.5,7.5,0,0,1,2.79-1.87,10.08,10.08,0,0,1,3.68-.65,8.72,8.72,0,0,1,4.51,1.11,7.26,7.26,0,0,1,2.82,2.87,7.48,7.48,0,0,1,.94,3.58,2.24,2.24,0,0,1-1,2.2A6.13,6.13,0,0,1,127.36,18.86Zm-8.78-2.55h8.14a5.44,5.44,0,0,0-1.24-3.44,3.72,3.72,0,0,0-2.84-1.14,3.6,3.6,0,0,0-2.75,1.15A5.83,5.83,0,0,0,118.58,16.31Z"/><path class="cls-2" d="M138.54,11.15v.54a8.85,8.85,0,0,1,2.63-2.29,6.41,6.41,0,0,1,3.09-.73,7.16,7.16,0,0,1,3.81,1.07,7.32,7.32,0,0,1,2.75,3.12,10.82,10.82,0,0,1,1,4.86,11.89,11.89,0,0,1-.58,3.81,8.66,8.66,0,0,1-1.6,2.91,7.22,7.22,0,0,1-2.41,1.81,7.14,7.14,0,0,1-3,.63,6.28,6.28,0,0,1-3.23-.77,9.48,9.48,0,0,1-2.49-2.27v6.74c0,2-.72,3-2.16,3a1.71,1.71,0,0,1-1.67-.76,4.74,4.74,0,0,1-.41-2.23V11.18a2.78,2.78,0,0,1,.56-1.91,1.93,1.93,0,0,1,1.52-.63,2,2,0,0,1,1.56.65A2.63,2.63,0,0,1,138.54,11.15Zm8.79,6.52a7.76,7.76,0,0,0-.54-3,4.52,4.52,0,0,0-1.51-2,3.62,3.62,0,0,0-2.13-.68A4,4,0,0,0,140,13.45a6.45,6.45,0,0,0-1.27,4.31A6.19,6.19,0,0,0,140,21.92a4,4,0,0,0,3.13,1.49,3.65,3.65,0,0,0,2.08-.65,4.43,4.43,0,0,0,1.52-2A7.59,7.59,0,0,0,147.33,17.67Z"/></g></g></svg>